<?xml version="1.0" encoding="iso-8859-1"?>
<!-- Generator: Adobe Illustrator 16.0.0, SVG Export Plug-In . SVG Version: 6.00 Build 0)  -->
<!DOCTYPE svg PUBLIC "-//W3C//DTD SVG 1.1//EN" "http://www.w3.org/Graphics/SVG/1.1/DTD/svg11.dtd">
<svg version="1.1" id="Layer_1" xmlns="http://www.w3.org/2000/svg" xmlns:xlink="http://www.w3.org/1999/xlink" x="0px" y="0px"
	 width="82px" height="82px" viewBox="0 0 82 82" style="enable-background:new 0 0 82 82;" xml:space="preserve">
<path style="fill:none;stroke:#2C3A77;stroke-miterlimit:10;" d="M72.01,32.925v27.835c0,6.321-4.163,11.46-9.3,11.46H18.346
	c-5.138,0-9.299-5.139-9.299-11.46V32.925c0-6.321,4.161-11.459,9.299-11.459H62.71C67.847,21.466,72.01,26.604,72.01,32.925z"/>
<path style="fill:none;stroke:#2C3A77;stroke-miterlimit:10;" d="M57.029,18.693H24.026c0-5.166,4.199-9.365,9.365-9.365h14.273
	C52.84,9.328,57.029,13.527,57.029,18.693z"/>
<rect x="9.222" y="44.078" style="fill:none;stroke:#2C3A77;stroke-miterlimit:10;" width="62.613" height="5.53"/>
<circle style="fill:none;stroke:#2C3A77;stroke-miterlimit:10;" cx="40.527" cy="46.844" r="2.72"/>
<path style="fill:none;stroke:#2C3A77;stroke-miterlimit:10;" d="M59.48,20.123c0,0.788-0.479,1.428-1.069,1.428H22.646
	c-0.591,0-1.071-0.64-1.071-1.428l0,0c0-0.788,0.479-1.427,1.071-1.427h35.766C59.002,18.696,59.48,19.335,59.48,20.123
	L59.48,20.123z"/>
</svg>
