<?xml version="1.0" encoding="iso-8859-1"?>
<!-- Generator: Adobe Illustrator 16.0.0, SVG Export Plug-In . SVG Version: 6.00 Build 0)  -->
<!DOCTYPE svg PUBLIC "-//W3C//DTD SVG 1.1//EN" "http://www.w3.org/Graphics/SVG/1.1/DTD/svg11.dtd">
<svg version="1.1" id="Layer_1" xmlns="http://www.w3.org/2000/svg" xmlns:xlink="http://www.w3.org/1999/xlink" x="0px" y="0px"
	 width="50px" height="50px" viewBox="0 0 50 50" style="enable-background:new 0 0 50 50;" xml:space="preserve">
<path style="fill:#DBA8AE;" d="M44,14.21C44,9.676,40.324,6,35.79,6H12.21C7.676,6,4,9.676,4,14.21v23.58
	C4,42.324,7.676,46,12.21,46h23.58c4.534,0,8.21-3.676,8.21-8.21V14.21z M16,38h-5V19h5V38z M16,17h-5v-5h5V17z M39.02,30.74
	c0,2.89-0.01,5.26-0.02,7.26h-6V25.67c1-1.559-0.564-3.323-2.529-3.67c0,0-2.471-0.358-4.471,1.87V38h-5V19h5v1.95
	c1-0.93,1.751-1.497,3.08-2.23c0.861-0.476,2.08-0.64,3.02-0.69c0.342-0.02,3.461,0.225,4.59,1.071
	c1.201,0.9,1.93,2.296,2.142,3.355C39.145,24.025,39.04,27.71,39.02,30.74z"/>
</svg>
