<?xml version="1.0" encoding="iso-8859-1"?>
<!-- Generator: Adobe Illustrator 16.0.0, SVG Export Plug-In . SVG Version: 6.00 Build 0)  -->
<!DOCTYPE svg PUBLIC "-//W3C//DTD SVG 1.1//EN" "http://www.w3.org/Graphics/SVG/1.1/DTD/svg11.dtd">
<svg version="1.1" id="Layer_1" xmlns="http://www.w3.org/2000/svg" xmlns:xlink="http://www.w3.org/1999/xlink" x="0px" y="0px"
	 width="82px" height="82px" viewBox="0 0 82 82" style="enable-background:new 0 0 82 82;" xml:space="preserve">
<path style="fill:none;stroke:#C9B3B2;stroke-miterlimit:10;" d="M39.552,65.374"/>
<path style="fill:none;stroke:#C9B3B2;stroke-miterlimit:10;" d="M40.488,61.443"/>
<path style="fill:none;stroke:#C9B3B2;stroke-miterlimit:10;" d="M39.646,65.093"/>
<path style="fill:none;stroke:#C9B3B2;stroke-miterlimit:10;" d="M43.295,62.426"/>
<path style="fill:none;stroke:#C9B3B2;stroke-miterlimit:10;" d="M65.846,20.782v42.49c0,4.955-4.02,8.982-8.982,8.982H28.507
	c-4.956,0-8.983-4.027-8.983-8.982v-42.49c0-4.956,4.027-8.982,8.983-8.982h28.356c1.437,1.572,2.463,2.635,3.369,3.533
	L40.648,64.994c-0.344,0.884-0.022,1.834,0.719,2.133c0.15,0.06,0.3,0.082,0.457,0.082c0.622,0,1.242-0.441,1.527-1.153
	l19.141-48.537C63.391,18.372,64.424,19.36,65.846,20.782z"/>
<path style="fill:none;stroke:#C9B3B2;stroke-miterlimit:10;" d="M42.089,32.034c0,3.264,0.56,5.91-3.141,5.91h-9.074
	c-3.701,0-3.351-2.646-3.351-5.91V20.521c0-3.265-0.769-5.911,2.932-5.911h9.493c3.701,0,3.141,2.646,3.141,5.911V32.034z"/>
<path style="fill:none;stroke:#C9B3B2;stroke-miterlimit:10;" d="M35.266,35.717c0,2.64,0.4,4.78-2.24,4.78h-6.472
	c-2.64,0-2.39-2.14-2.39-4.78v-9.31c0-2.639-0.549-4.779,2.091-4.779h6.771c2.64,0,2.24,2.14,2.24,4.779V35.717z"/>
<path style="fill:none;stroke:#C9B3B2;stroke-miterlimit:10;" d="M64.597,12.181l-2.104,5.337L43.352,66.056
	c-0.285,0.712-0.905,1.153-1.527,1.153c-0.157,0-0.307-0.022-0.457-0.082c-0.741-0.299-1.063-1.249-0.719-2.133l19.584-49.661
	l1.661-4.214c0.284-0.712,0.905-1.153,1.526-1.153c0.157,0,0.308,0.022,0.458,0.083C64.619,10.348,64.94,11.298,64.597,12.181z"/>
<path style="fill:none;stroke:#C9B3B2;stroke-width:0.5;stroke-miterlimit:10;" d="M40.57,70.988
	c-0.129,0.234-0.25,0.505-0.608,0.444l0,0c-0.284,0-0.468-0.336-0.468-0.62"/>
<line style="fill:none;stroke:#C9B3B2;stroke-width:0.5;stroke-miterlimit:10;" x1="43.178" y1="66.684" x2="40.57" y2="71.011"/>
<line style="fill:none;stroke:#C9B3B2;stroke-width:0.5;stroke-miterlimit:10;" x1="40.332" y1="65.795" x2="39.49" y2="70.848"/>
</svg>
