<?xml version="1.0" encoding="iso-8859-1"?>
<!-- Generator: Adobe Illustrator 16.0.0, SVG Export Plug-In . SVG Version: 6.00 Build 0)  -->
<!DOCTYPE svg PUBLIC "-//W3C//DTD SVG 1.1//EN" "http://www.w3.org/Graphics/SVG/1.1/DTD/svg11.dtd">
<svg version="1.1" id="Layer_1" xmlns="http://www.w3.org/2000/svg" xmlns:xlink="http://www.w3.org/1999/xlink" x="0px" y="0px"
	 width="500px" height="500px" viewBox="0 0 500 500" style="enable-background:new 0 0 500 500;" xml:space="preserve">
<g>
	<path style="fill:none;stroke:#FFFFFF;stroke-width:5;stroke-miterlimit:10;" d="M429.584,457.522c0,6.627-5.373,12-12,12H94.425
		c-6.627,0-12-5.373-12-12V50.841c0-6.627,5.373-12,12-12h323.159c6.627,0,12,5.373,12,12V457.522z"/>
	<path style="fill:none;stroke:#FFFFFF;stroke-width:5;stroke-miterlimit:10;" d="M429.525,141.92c0,1.621-5.373,2.936-12,2.936
		H94.365c-6.627,0-12-1.314-12-2.936l0.152-93.003c0-1.621,5.221-10.076,11.848-10.076l322.736-0.174
		c6.627,0,12.542,8.503,12.542,10.125L429.525,141.92z"/>
</g>
<path style="fill:none;stroke:#FFFFFF;stroke-width:5;stroke-miterlimit:10;" d="M159.326,100.607
	c0,8.317-4.844,15.059-10.819,15.059h-41.021c-5.975,0-10.819-6.742-10.819-15.059V88.059c0-8.317,4.844-15.059,10.819-15.059
	h41.021c5.975,0,10.819,6.742,10.819,15.059V100.607z"/>
<rect x="188.754" y="62.667" style="fill:none;stroke:#FFFFFF;stroke-width:5;stroke-miterlimit:10;" width="134.5" height="52.5"/>
<g>
	<circle style="fill:none;stroke:#FFFFFF;stroke-width:5;stroke-miterlimit:10;" cx="246.425" cy="306.335" r="125"/>
	<circle style="fill:none;stroke:#FFFFFF;stroke-width:5;stroke-miterlimit:10;" cx="246.425" cy="306.335" r="95.333"/>
</g>
<circle style="fill:none;stroke:#FFFFFF;stroke-width:5;stroke-miterlimit:10;" cx="246.425" cy="306.335" r="79.667"/>
<path style="fill:none;stroke:#FFFFFF;stroke-width:5;stroke-miterlimit:10;" d="M321.25,332.917c-12.15,0-22-11.79-22-26.333
	c0-14.544,9.85-26.334,22-26.334"/>
</svg>
